<svg width="100" height="100" viewBox="0 0 100 100" fill="none" xmlns="http://www.w3.org/2000/svg">
  <path d="M20 40C20 25 35 15 50 15C65 15 80 25 80 40C80 55 70 75 50 85C30 75 20 55 20 40Z" fill="#FF9900"/>
  
  <path d="M22 35H35L30 42H21L22 35Z" fill="black"/>
  <path d="M23 48H33L30 55H24L23 48Z" fill="black"/>
  
  <path d="M78 35H65L70 42H79L78 35Z" fill="black"/>
  <path d="M77 48H67L70 55H76L77 48Z" fill="black"/>
  
  <path d="M45 15V25L50 30L55 25V15H45Z" fill="black"/>
  
  <circle cx="38" cy="45" r="4" fill="white"/>
  <circle cx="62" cy="45" r="4" fill="white"/>
  
  <path d="M46 60L50 65L54 60H46Z" fill="black"/>
  <path d="M50 65V72M50 72C46 72 43 70 43 68M50 72C54 72 57 70 57 68" stroke="black" stroke-width="2" stroke-linecap="round"/>
</svg>